<?xml version="1.0" encoding="utf-8"?>
<!-- Generator: Adobe Illustrator 19.2.1, SVG Export Plug-In . SVG Version: 6.00 Build 0)  -->
<svg version="1.1" id="layer" xmlns="http://www.w3.org/2000/svg" xmlns:xlink="http://www.w3.org/1999/xlink" x="0px" y="0px"
	 viewBox="0 0 652 652" style="enable-background:new 0 0 652 652;" xml:space="preserve">
<style type="text/css">
	.st0{fill-rule:evenodd;clip-rule:evenodd;fill:#008555;}
</style>
<path class="st0" d="M49.8,327.9c3.2,0,6.1,1.9,7.3,4.9c2,5.1,6,9.2,11.1,11.1c3,1.2,4.9,4.1,4.9,7.3v15.6c0,4.3-3.5,7.8-7.8,7.7
	c-4.4,0.3-8-3.4-7.6-7.7v-12.5l-18,18c-3,3-7.9,3-10.9,0v-0.1c-3-3-3-7.9,0-10.9l18-18H34.2c-4.4,0.3-8-3.3-7.7-7.6
	c-0.1-4.3,3.4-7.8,7.7-7.8H49.8z M115.3,327.9c4.3,0,7.8,3.5,7.7,7.8c0.3,4.4-3.4,7.9-7.7,7.6h-12.5l18,18c3,3,3,7.9,0,10.9v0
	c-3,3-7.9,3-10.9,0l-18-18v12.5c0.4,4.4-3.2,8-7.6,7.7c-4.3,0.1-7.8-3.4-7.8-7.7v-15.6c0-3.2,1.9-6.1,4.9-7.3c5.1-2,9.2-6,11.1-11.1
	c1.2-3,4.1-4.9,7.3-4.9H115.3z M282.1,281.8v24.4h15.8v12.9h-15.8v28.6c0,8.3,2,10.7,7.7,10.7c2.8,0,5.5-0.3,8.2-1v13.4
	c-4.5,1.1-9,1.7-13.7,1.7v-0.1c-14.4,0-18.8-5.2-18.8-20.4v-32.9h-11.3v-12.9h11.1v-20L282.1,281.8z M572.4,304.8
	c4,0.1,8,0.5,11.9,1.2l-0.5,13.2c-3.9-1.1-8-1.7-12-1.7c-6.5,0-9.7,2.7-9.7,6.7c0,10.6,26.6,5.9,26.6,26.9c0,12.8-11.2,21.4-29,21.4
	l0.1-0.1c-4.6,0-9.1-0.4-13.7-1.2l0.4-13.7c4.6,1.2,9.3,1.9,14,1.9c6.4,0,10.6-2.7,10.6-6.9c0-11.5-26.3-5-26.3-27
	C544.8,314.3,554.1,304.8,572.4,304.8L572.4,304.8z M432.7,304.8c18.9,0,27.3,12.9,27.3,29c0,2.5-0.2,5-0.5,7.6h-40.2
	c-0.1,12.2,5.9,18,17.9,18c6.5,0,13-1.4,19-4l1.6,12.9c-7.4,2.8-15.3,4.2-23.2,4.2c-20.6,0-32.1-10.3-32.1-33.2
	C402.3,319.4,413.2,304.8,432.7,304.8L432.7,304.8z M192.1,282.3c6.3,0,12.6,0.8,18.7,2.4l-1.8,15.4c-5.8-1.7-11.7-2.7-17.8-2.7
	c-16.4,0-24.6,12.4-24.6,29.5c0,19.1,8,30,25.7,30c5.9-0.2,11.7-1.4,17.1-3.7l2,15.1c-7.3,2.6-15,3.9-22.7,3.9v0.1
	c-30.8,0-40.7-20.5-40.7-42.4C147.9,301.9,162.6,282.3,192.1,282.3L192.1,282.3z M511.1,304.7c14.6,0,19.3,9.4,19.3,20.8V371
	l-16.6,0.1v-41.5c0-6.8-1.8-10.9-8-10.9c-8.5,0-15.1,9.7-15.1,21V371H474v-64.8h15.8c0,3.9-0.3,7.7-0.9,11.5h0.1
	C493.2,309.4,501.8,304.3,511.1,304.7L511.1,304.7z M391.2,306.2v11.9l-25.6,37.8c2.2-0.1,7.1-0.1,11.5-0.1h14.7V371l-46.7,0.1
	v-11.9l26.1-38.4c-2.3,0.1-7,0.3-12.9,0.3h-12.5v-14.9H391.2z M330.1,306.2v64.9h-16.7v-64.9H330.1z M242.5,306.2v64.9h-16.7v-64.9
	H242.5z M432.2,317.1c-6.9,0-11.7,5.1-12.6,12.9h23.9C443.7,321.8,439.3,317.1,432.2,317.1L432.2,317.1z M65.2,278
	c4.3-0.1,7.8,3.4,7.8,7.7v15.6c0,3.2-1.9,6.1-4.9,7.3c-5.1,2-9.2,6-11.2,11.1c-1.2,3-4.1,4.9-7.3,4.9H34.1c-4.3,0-7.8-3.5-7.7-7.8
	c-0.3-4.4,3.4-7.9,7.7-7.6h12.5l-18-18c-3-3-3-7.9,0-10.9l0.1,0c3-3,7.9-3,10.9,0l18,18l-0.1-12.5C57.2,281.4,60.8,277.7,65.2,278
	L65.2,278z M120.8,280.2c3,3,3,7.9,0,10.9l-18,18h12.5c4.4-0.3,8,3.2,7.7,7.6c0.1,4.3-3.4,7.9-7.7,7.8H99.7c-3.2,0-6.1-1.9-7.3-4.9
	c-2-5.1-6-9.2-11.1-11.1c-3-1.2-4.9-4.1-4.9-7.3v-15.6c0-4.3,3.5-7.8,7.8-7.7c4.4-0.3,8,3.4,7.6,7.7v12.5l18-18
	C112.9,277.2,117.8,277.2,120.8,280.2L120.8,280.2z M614.6,305.3l2.7,8.2c0.2,0.6,0.4,1.2,0.6,1.9l0.2,1c0.2-0.9,0.5-1.8,0.8-2.7
	l2.7-8.2h2.7l2.1,14l-2.4-0.2l-1.1-7.4c-0.2-1.3-0.3-2.2-0.4-3l0-0.4c-0.2,0.9-0.4,1.8-0.7,2.7l-2.7,8.2h-2.3l-2.5-7.5
	c-0.3-0.8-0.5-1.6-0.7-2.5l-0.2-0.8c0,1.2-0.2,2.3-0.3,3.6l-0.9,7.2h-2.3l2.1-14H614.6z M609.4,305.2v1.9h-3.9v12.1h-2.3v-12.1h-3.8
	v-1.9H609.4z M322.1,281.3c5.3,0,9.6,4.3,9.7,9.6c-0.1,5.3-4.2,9.6-9.5,9.8h-0.5C308.8,300.5,309.1,281.1,322.1,281.3L322.1,281.3z
	 M234.5,281.3c5.3,0,9.6,4.3,9.7,9.6c-0.1,5.5-4.6,9.9-10,9.8C221.2,300.5,221.6,281.1,234.5,281.3L234.5,281.3z M234.5,281.3"/>
</svg>
